<svg xmlns="http://www.w3.org/2000/svg" viewBox="0 0 141 109" role="img" aria-label="Ko-fi">
	<g transform="translate(-0.511811 108.604964) scale(0.1 -0.1)" fill="#202020">
		<path d="M292 1079c-132-16-210-69-261-178-25-54-26-63-26-226 0-198 16-284 72-398 45-89 135-180 216-220 155-75 393-75 547 0 82 39 189 151 231 240 32 68 36 72 78 83 93 24 176 90 221 177 49 95 48 239-2 340-39 78-132 146-240 174-54 14-733 21-836 8zm836-133c117-38 180-149 154-273-23-113-94-174-211-183l-64-5-17-60c-44-158-146-261-292-295-58-13-192-13-261 1-219 44-325 239-315 579 4 146 17 180 86 218 63 35 137 41 517 38 299-2 358-5 403-20zM1014 827c-2-7-3-58-2-112 3-114 10-123 76-105 59 15 85 57 79 124-6 65-47 106-107 106-25 0-43-5-46-13zM365 821c-32-14-84-71-96-109-16-47-7-129 19-183 30-63 98-130 190-190 95-62 111-61 218 12 132 91 194 185 194 292 0 114-58 178-167 185-56 4-68 1-103-22-22-14-40-32-40-38 0-7-7-2-16 10-8 12-28 29-44 37-31 16-122 19-155 6z" />
	</g>
</svg>
