<?xml version="1.0" encoding="UTF-8" ?>
<!DOCTYPE svg PUBLIC "-//W3C//DTD SVG 1.1//EN" "http://www.w3.org/Graphics/SVG/1.1/DTD/svg11.dtd">
<svg width="1000pt" height="1000pt" viewBox="0 0 1000 1000" version="1.1" xmlns="http://www.w3.org/2000/svg">
<g id="#d12e5dff">
<path fill="#d12e5d" opacity="1.00" d=" M 490.04 1.35 C 533.74 0.08 577.52 5.12 620.04 15.18 C 690.90 31.87 757.93 64.62 814.60 110.34 C 867.40 152.87 911.44 206.32 942.55 266.59 C 970.52 320.96 988.59 380.37 995.95 441.06 C 997.82 456.31 998.28 471.68 1000.00 486.94 L 1000.00 514.50 C 998.01 527.65 998.33 541.00 996.69 554.19 C 987.06 649.34 948.80 741.27 888.64 815.56 C 865.63 843.73 839.53 869.38 811.00 891.94 C 754.72 936.39 688.76 968.62 618.94 985.09 C 564.41 998.17 507.75 1001.57 451.95 996.59 C 419.54 993.57 387.48 987.09 356.29 977.85 C 268.13 952.03 187.99 900.44 126.76 832.11 C 101.92 804.18 80.36 773.36 62.49 740.53 C 25.22 672.11 4.25 594.92 1.63 517.05 C -0.97 443.77 13.30 370.17 41.72 302.65 C 85.06 198.01 166.58 110.03 266.99 57.84 C 335.56 21.91 412.65 2.48 490.04 1.35 M 417.23 94.61 C 356.08 106.97 297.79 133.29 248.26 171.26 C 194.05 212.66 149.97 267.27 121.15 329.11 C 110.59 351.87 101.72 375.54 96.60 400.16 C 94.59 408.49 96.54 417.29 100.14 424.91 C 104.91 435.04 114.43 442.41 124.96 445.81 C 131.43 448.00 138.33 447.23 145.03 447.38 C 240.10 447.52 335.18 447.29 430.25 447.49 C 423.10 454.93 415.63 462.07 408.38 469.43 C 399.95 476.53 393.71 486.75 393.62 498.02 C 393.39 509.71 399.63 521.18 409.45 527.50 C 420.34 534.58 435.15 534.64 446.35 528.21 C 451.78 525.23 455.64 520.26 460.10 516.09 C 487.85 488.53 515.58 460.95 543.34 433.41 C 555.80 421.10 555.85 398.81 543.51 386.40 C 513.31 356.33 482.98 326.39 452.83 296.27 C 447.55 291.05 440.30 288.30 433.07 287.18 C 421.11 285.30 408.62 290.75 401.13 300.12 C 392.90 310.21 391.44 325.09 397.37 336.67 C 400.34 343.26 406.09 347.83 411.01 352.90 C 417.84 359.78 424.77 366.57 431.54 373.51 C 349.28 373.80 267.02 373.52 184.76 373.67 C 210.89 310.43 255.67 254.65 313.07 217.14 C 364.85 183.15 425.95 163.23 487.93 161.26 C 500.62 159.99 513.36 161.18 526.05 161.75 C 547.67 163.12 569.05 167.18 589.94 172.81 C 653.52 190.41 711.42 227.58 754.31 277.66 C 772.89 299.29 788.37 323.51 801.02 349.04 C 818.49 384.99 829.05 424.19 832.95 463.94 C 834.20 473.17 838.42 482.26 845.66 488.29 C 854.93 496.31 868.14 500.06 880.10 496.69 C 897.66 492.39 910.46 474.12 908.24 456.12 C 904.65 415.27 894.85 374.93 878.82 337.17 C 852.59 275.14 810.81 219.78 758.50 177.38 C 710.11 138.14 652.80 109.72 591.98 95.98 C 534.70 83.10 474.72 82.88 417.23 94.61 M 621.49 239.65 C 613.78 241.19 605.81 242.59 599.02 246.79 C 598.30 248.78 597.53 250.79 597.44 252.93 C 596.90 261.29 597.34 269.72 598.83 277.97 C 602.72 298.07 609.87 317.69 621.18 334.83 C 636.02 357.85 658.69 375.69 684.63 384.49 C 706.44 392.21 730.21 395.05 753.08 390.98 C 761.21 389.70 769.38 387.61 776.42 383.19 C 778.72 373.59 776.77 363.74 775.38 354.17 C 771.57 329.88 762.15 306.33 747.28 286.70 C 725.91 258.66 692.02 241.22 657.06 238.30 C 645.20 237.77 633.20 237.39 621.49 239.65 M 585.47 476.50 C 554.70 506.37 524.61 536.93 494.16 567.14 C 484.24 576.65 480.85 592.26 486.45 604.90 C 489.39 612.84 496.02 618.33 501.81 624.15 C 529.24 651.37 556.51 678.76 583.99 705.94 C 592.57 713.91 605.25 717.36 616.65 714.50 C 625.61 712.20 633.78 706.48 638.48 698.45 C 646.37 685.19 644.21 666.67 632.99 655.94 C 624.40 646.77 614.56 638.72 606.63 628.98 C 677.90 628.96 749.17 629.00 820.44 628.97 C 795.89 693.80 751.15 750.91 693.68 789.76 C 640.65 825.98 577.26 847.05 513.02 848.91 C 474.57 849.99 435.95 844.36 399.38 832.48 C 339.89 813.33 286.33 776.69 246.20 728.86 C 203.36 678.26 175.62 615.24 166.59 549.60 C 165.31 542.08 165.66 534.21 162.83 527.03 C 160.23 520.84 156.48 514.99 151.16 510.81 C 142.30 503.71 130.14 500.69 119.05 503.31 C 108.83 505.63 99.61 512.33 94.59 521.58 C 90.89 528.37 89.04 536.30 90.04 544.03 C 97.20 618.48 124.61 690.93 168.55 751.45 C 206.11 803.77 256.13 846.98 313.17 876.84 C 371.68 907.63 437.86 923.75 503.99 923.00 C 548.03 923.33 591.99 915.69 633.76 901.90 C 663.08 892.04 691.23 878.79 717.63 862.69 C 811.05 806.14 881.14 711.43 905.70 604.81 C 908.28 595.51 907.78 585.20 903.52 576.46 C 898.38 566.10 888.28 558.61 877.13 555.85 C 871.52 554.55 865.72 555.06 860.01 555.00 C 775.16 554.97 690.30 555.03 605.45 554.98 C 613.12 547.14 620.92 539.44 628.70 531.70 C 632.19 528.16 636.15 524.91 638.53 520.45 C 645.96 507.80 644.76 490.26 634.32 479.61 C 622.41 465.67 599.15 464.67 585.47 476.50 M 237.57 613.31 C 231.55 614.41 225.49 615.94 220.17 619.06 L 220.03 618.95 C 217.78 624.68 218.56 630.92 218.89 636.91 C 220.00 646.74 222.12 656.46 224.86 665.97 C 233.36 694.94 249.47 722.61 273.96 740.85 C 302.48 761.70 338.91 771.87 374.08 767.68 C 382.99 766.35 392.19 764.79 400.07 760.15 C 400.72 758.17 401.21 756.12 401.22 754.03 C 401.67 740.48 398.70 727.15 395.52 714.07 C 384.94 671.85 353.55 634.51 312.09 619.97 C 288.40 611.36 262.41 608.83 237.57 613.31 Z" />
</g>
<g id="#fdfdfdff">
<path fill="#fdfdfd" opacity="1.00" d=" M 417.23 94.61 C 474.72 82.88 534.70 83.10 591.98 95.98 C 652.80 109.72 710.11 138.14 758.50 177.38 C 810.81 219.78 852.59 275.14 878.82 337.17 C 894.85 374.93 904.65 415.27 908.24 456.12 C 910.46 474.12 897.66 492.39 880.10 496.69 C 868.14 500.06 854.93 496.31 845.66 488.29 C 838.42 482.26 834.20 473.17 832.95 463.94 C 829.05 424.19 818.49 384.99 801.02 349.04 C 788.37 323.51 772.89 299.29 754.31 277.66 C 711.42 227.58 653.52 190.41 589.94 172.81 C 569.05 167.18 547.67 163.12 526.05 161.75 C 513.36 161.18 500.62 159.99 487.93 161.26 C 425.95 163.23 364.85 183.15 313.07 217.14 C 255.67 254.65 210.89 310.43 184.76 373.67 C 267.02 373.52 349.28 373.80 431.54 373.51 C 424.77 366.57 417.84 359.78 411.01 352.90 C 406.09 347.83 400.34 343.26 397.37 336.67 C 391.44 325.09 392.90 310.21 401.13 300.12 C 408.62 290.75 421.11 285.30 433.07 287.18 C 440.30 288.30 447.55 291.05 452.83 296.27 C 482.98 326.39 513.31 356.33 543.51 386.40 C 555.85 398.81 555.80 421.10 543.34 433.41 C 515.58 460.95 487.85 488.53 460.10 516.09 C 455.64 520.26 451.78 525.23 446.35 528.21 C 435.15 534.64 420.34 534.58 409.45 527.50 C 399.63 521.18 393.39 509.71 393.62 498.02 C 393.71 486.75 399.95 476.53 408.38 469.43 C 415.63 462.07 423.10 454.93 430.25 447.49 C 335.18 447.29 240.10 447.52 145.03 447.38 C 138.33 447.23 131.43 448.00 124.96 445.81 C 114.43 442.41 104.91 435.04 100.14 424.91 C 96.54 417.29 94.59 408.49 96.60 400.16 C 101.72 375.54 110.59 351.87 121.15 329.11 C 149.97 267.27 194.05 212.66 248.26 171.26 C 297.79 133.29 356.08 106.97 417.23 94.61 Z" />
<path fill="#fdfdfd" opacity="1.00" d=" M 585.47 476.50 C 599.15 464.67 622.41 465.67 634.32 479.61 C 644.76 490.26 645.96 507.80 638.53 520.45 C 636.15 524.91 632.19 528.16 628.70 531.70 C 620.92 539.44 613.12 547.14 605.45 554.98 C 690.30 555.03 775.16 554.97 860.01 555.00 C 865.72 555.06 871.52 554.55 877.13 555.85 C 888.28 558.61 898.38 566.10 903.52 576.46 C 907.78 585.20 908.28 595.51 905.70 604.81 C 881.14 711.43 811.05 806.14 717.63 862.69 C 691.23 878.79 663.08 892.04 633.76 901.90 C 591.99 915.69 548.03 923.33 503.99 923.00 C 437.86 923.75 371.68 907.63 313.17 876.84 C 256.13 846.98 206.11 803.77 168.55 751.45 C 124.61 690.93 97.20 618.48 90.04 544.03 C 89.04 536.30 90.89 528.37 94.59 521.58 C 99.61 512.33 108.83 505.63 119.05 503.31 C 130.14 500.69 142.30 503.71 151.16 510.81 C 156.48 514.99 160.23 520.84 162.83 527.03 C 165.66 534.21 165.31 542.08 166.59 549.60 C 175.62 615.24 203.36 678.26 246.20 728.86 C 286.33 776.69 339.89 813.33 399.38 832.48 C 435.95 844.36 474.57 849.99 513.02 848.91 C 577.26 847.05 640.65 825.98 693.68 789.76 C 751.15 750.91 795.89 693.80 820.44 628.97 C 749.17 629.00 677.90 628.96 606.63 628.98 C 614.56 638.72 624.40 646.77 632.99 655.94 C 644.21 666.67 646.37 685.19 638.48 698.45 C 633.78 706.48 625.61 712.20 616.65 714.50 C 605.25 717.36 592.57 713.91 583.99 705.94 C 556.51 678.76 529.24 651.37 501.81 624.15 C 496.02 618.33 489.39 612.84 486.45 604.90 C 480.85 592.26 484.24 576.65 494.16 567.14 C 524.61 536.93 554.70 506.37 585.47 476.50 Z" />
</g>
<g id="#97b95bff">
<path fill="#97b95b" opacity="1.00" d=" M 621.49 239.65 C 633.20 237.39 645.20 237.77 657.06 238.30 C 692.02 241.22 725.91 258.66 747.28 286.70 C 762.15 306.33 771.57 329.88 775.38 354.17 C 776.77 363.74 778.72 373.59 776.42 383.19 C 731.18 349.38 686.48 314.85 641.89 280.19 C 627.56 269.11 613.03 258.27 599.02 246.79 C 605.81 242.59 613.78 241.19 621.49 239.65 Z" />
<path fill="#97b95b" opacity="1.00" d=" M 237.57 613.31 C 262.41 608.83 288.40 611.36 312.09 619.97 C 353.55 634.51 384.94 671.85 395.52 714.07 C 398.70 727.15 401.67 740.48 401.22 754.03 C 401.21 756.12 400.72 758.17 400.07 760.15 C 343.69 716.91 288.05 672.72 232.25 628.75 C 228.21 625.53 224.18 622.31 220.17 619.06 C 225.49 615.94 231.55 614.41 237.57 613.31 Z" />
</g>
<g id="#619544ff">
<path fill="#619544" opacity="1.00" d=" M 597.44 252.93 C 597.53 250.79 598.30 248.78 599.02 246.79 C 613.03 258.27 627.56 269.11 641.89 280.19 C 686.48 314.85 731.18 349.38 776.42 383.19 C 769.38 387.61 761.21 389.70 753.08 390.98 C 730.21 395.05 706.44 392.21 684.63 384.49 C 658.69 375.69 636.02 357.85 621.18 334.83 C 609.87 317.69 602.72 298.07 598.83 277.97 C 597.34 269.72 596.90 261.29 597.44 252.93 Z" />
<path fill="#619544" opacity="1.00" d=" M 220.03 618.95 L 220.17 619.06 C 224.18 622.31 228.21 625.53 232.25 628.75 C 288.05 672.72 343.69 716.91 400.07 760.15 C 392.19 764.79 382.99 766.35 374.08 767.68 C 338.91 771.87 302.48 761.70 273.96 740.85 C 249.47 722.61 233.36 694.94 224.86 665.97 C 222.12 656.46 220.00 646.74 218.89 636.91 C 218.56 630.92 217.78 624.68 220.03 618.95 Z" />
</g>
</svg>
